<svg width="1264" height="165" viewBox="0 0 1264 165" fill="none" xmlns="http://www.w3.org/2000/svg">
<g clip-path="url(#clip0_46_24021)">
<path fill-rule="evenodd" clip-rule="evenodd" d="M555.176 134.544L555.141 134.476C555.097 134.521 555.107 134.544 555.176 134.544ZM555.141 134.476C555.352 134.258 556.83 133.52 559.225 132.326C565.667 129.113 578.743 122.59 591.645 113.956C617.919 96.3664 634.147 78.4771 639.856 60.7378C644.171 47.3048 642.346 33.8504 634.576 21.7885C611.415 -14.14 555.348 4.97045 552.965 5.806L552.879 28.1301C552.884 28.1283 552.897 28.1236 552.918 28.1159C554.437 27.5587 597.709 11.6842 612.553 34.1289C616.76 40.4919 617.554 46.8549 615.279 53.9677C607.015 79.6983 561.036 105.386 544.036 113.099L555.141 134.476ZM557.065 141.829L566.381 164.71L678.107 124.132L668.813 101.272L557.065 141.829Z" fill="#0F52FF"/>
<path d="M106.188 37.8352C102.496 31.8579 97.1944 27.2302 90.2397 23.9095C83.285 20.6101 75.0638 18.9604 65.5547 18.9604H0V138.936H27.2393V98.2945H65.5547C75.0638 98.2945 83.285 96.6234 90.2397 93.2598C97.1944 89.8962 102.496 85.2685 106.188 79.334C109.88 73.4209 111.726 66.5223 111.726 58.6168C111.726 50.7112 109.88 43.7912 106.188 37.8138V37.8352ZM78.949 71.2785C75.3643 74.3636 70.4273 75.9276 64.1166 75.9276H27.2393V41.3702H64.0951C70.4059 41.3702 75.3429 42.8913 78.9276 45.9336C82.5122 48.9758 84.2939 53.2178 84.2939 58.6596C84.2939 64.1014 82.5122 68.2148 78.9276 71.2999L78.949 71.2785Z" fill="#030039"/>
<path d="M219.889 138.936H248.889L192.628 18.9604H157.683L101.423 138.936H130.422L141.842 113.656H208.448L219.868 138.936H219.889ZM151.845 91.5887L175.177 39.9348L198.51 91.5887H151.845Z" fill="#030039"/>
<path d="M249.555 99.7513H277.116C277.76 103.801 279.542 107.357 282.482 110.399C285.423 113.441 289.373 115.777 294.353 117.448C299.311 119.097 305.064 119.933 311.589 119.933C321.098 119.933 328.611 118.583 334.106 115.862C339.601 113.141 342.37 109.328 342.37 104.422C342.37 100.587 340.782 97.6303 337.648 95.5522C334.493 93.474 328.654 91.9529 320.089 90.9888L295.898 88.2679C280.293 86.554 269.002 82.9118 262.004 77.3201C255.007 71.7284 251.508 63.9085 251.508 53.882C251.508 45.9978 253.826 39.2706 258.484 33.7217C263.142 28.1729 269.668 23.9309 278.125 20.9957C286.561 18.0606 296.499 16.6038 307.94 16.6038C319.381 16.6038 328.933 18.232 337.584 21.4885C346.234 24.745 353.124 29.2655 358.254 35.0929C363.385 40.8989 366.154 47.7118 366.583 55.4888H339.022C338.485 51.9752 336.918 48.9115 334.299 46.2978C331.681 43.684 328.074 41.6487 323.481 40.2133C318.887 38.7779 313.478 38.0494 307.296 38.0494C298.646 38.0494 291.755 39.3349 286.625 41.8844C281.495 44.4339 278.941 48.076 278.941 52.7679C278.941 56.3886 280.465 59.1952 283.513 61.1662C286.561 63.1373 291.927 64.6155 299.612 65.5582L324.769 68.6004C335.888 69.7788 344.731 71.6641 351.3 74.2779C357.868 76.8916 362.569 80.3838 365.402 84.7543C368.236 89.1249 369.653 94.6738 369.653 101.401C369.653 109.392 367.227 116.419 362.354 122.44C357.482 128.46 350.677 133.13 341.919 136.43C333.162 139.729 322.901 141.379 311.138 141.379C299.375 141.379 288.643 139.643 279.563 136.173C270.483 132.702 263.314 127.86 258.076 121.625C252.839 115.391 250.005 108.107 249.576 99.7942L249.555 99.7513Z" fill="#030039"/>
<path d="M381.458 99.7513H409.019C409.663 103.801 411.445 107.357 414.386 110.399C417.326 113.441 421.276 115.777 426.256 117.448C431.214 119.097 436.967 119.933 443.492 119.933C453.002 119.933 460.514 118.583 466.009 115.862C471.505 113.141 474.274 109.328 474.274 104.422C474.274 100.587 472.685 97.6303 469.551 95.5522C466.396 93.474 460.557 91.9529 451.993 90.9888L427.801 88.2679C412.196 86.554 400.905 82.9118 393.908 77.3201C386.91 71.7284 383.411 63.9085 383.411 53.882C383.411 45.9978 385.73 39.2706 390.388 33.7217C395.045 28.1729 401.571 23.9309 410.028 20.9957C418.464 18.0606 428.402 16.6038 439.843 16.6038C451.284 16.6038 460.836 18.232 469.487 21.4885C478.137 24.745 485.028 29.2655 490.158 35.0929C495.288 40.8989 498.057 47.7118 498.486 55.4888H470.925C470.388 51.9752 468.821 48.9115 466.203 46.2978C463.584 43.684 459.978 41.6487 455.384 40.2133C450.791 38.7779 445.381 38.0494 439.199 38.0494C430.549 38.0494 423.659 39.3349 418.528 41.8844C413.398 44.4339 410.844 48.076 410.844 52.7679C410.844 56.3886 412.368 59.1952 415.416 61.1662C418.464 63.1373 423.83 64.6155 431.515 65.5582L456.672 68.6004C467.791 69.7788 476.635 71.6641 483.203 74.2779C489.771 76.8916 494.472 80.3838 497.306 84.7543C500.139 89.1249 501.556 94.6738 501.556 101.401C501.556 109.392 499.13 116.419 494.258 122.44C489.385 128.46 482.581 133.13 473.823 136.43C465.065 139.729 454.805 141.379 443.042 141.379C431.279 141.379 420.546 139.643 411.466 136.173C402.387 132.702 395.217 127.86 389.98 121.625C384.742 115.391 381.909 108.107 381.479 99.7942L381.458 99.7513Z" fill="#030039"/>
<path d="M810.011 138.936H842.939L804.237 91.0317C809.024 90.239 813.424 88.9107 817.46 87.0039C824.307 83.7689 829.652 79.2698 833.516 73.5495C837.379 67.8292 839.311 61.1663 839.311 53.5607C839.311 45.9551 837.379 39.1421 833.516 33.4219C829.652 27.7016 824.307 23.2025 817.46 19.9674C810.612 16.7109 802.67 15.1041 793.633 15.1041H722.991V138.958H751.111V91.8887H772.662L810.011 138.958V138.936ZM751.111 37.214H790.328C796.617 37.214 801.597 38.6494 805.31 41.4988C809.002 44.3697 810.848 48.376 810.848 53.5607C810.848 58.7453 809.002 62.7731 805.31 65.7082C801.618 68.6219 796.617 70.0788 790.328 70.0788H751.111V37.214Z" fill="#030039"/>
<path d="M884.56 115.648L884.388 87.7538H962.886V66.2867H884.388L884.56 38.3709H967.201V15.1041H856.333L857.342 77.0202L856.333 138.936H968.016V115.648H884.56Z" fill="#030039"/>
<path d="M1094.57 15.1041V107.357L1025.76 15.1041H989.353V138.936H1016.48V45.0124L1086.31 138.936H1121.88V15.1041H1094.57Z" fill="#030039"/>
<path d="M1264 15.1041H1137.27V39.8706H1186.73V138.936H1214.69V39.8706H1264V15.1041Z" fill="#030039"/>
</g>
<defs>
<clipPath id="clip0_46_24021">
<rect width="1264" height="165" fill="white"/>
</clipPath>
</defs>
</svg>
